<svg width="622" height="668" viewBox="0 0 622 668" fill="none" xmlns="http://www.w3.org/2000/svg">
<g clip-path="url(#clip0_1018_6686)">
<path d="M621.9 219.533C621.9 74.9 527.133 32.5334 527.133 32.5334C479.367 10.6 397.333 1.36669 312.1 0.666687H310C224.767 1.36669 142.8 10.6 95 32.5334C95 32.5334 0.233351 74.9334 0.233351 219.533C0.233351 252.633 -0.399987 292.233 0.633346 334.233C4.06668 475.667 26.5667 615.067 157.333 649.667C217.633 665.633 269.4 668.967 311.067 666.667C386.667 662.467 429.1 639.7 429.1 639.7L426.6 584.833C426.6 584.833 372.567 601.867 311.9 599.8C251.767 597.733 188.333 593.333 178.6 519.5C177.681 512.639 177.235 505.722 177.267 498.8C177.267 498.8 236.267 513.233 311.067 516.667C356.8 518.767 399.667 514 443.233 508.8C526.767 498.833 599.5 447.367 608.633 400.333C623.1 326.233 621.9 219.533 621.9 219.533ZM510.133 405.867H440.767V235.9C440.767 200.067 425.7 181.9 395.533 181.9C362.2 181.9 345.5 203.467 345.5 246.133V339.167H276.533V246.133C276.533 203.467 259.833 181.9 226.467 181.9C196.3 181.9 181.233 200.1 181.233 235.9V405.867H111.867V230.767C111.867 194.967 120.967 166.533 139.3 145.5C158.167 124.467 182.867 113.667 213.567 113.667C249.067 113.667 275.967 127.3 293.733 154.6L311 183.567L328.3 154.6C346.067 127.3 372.967 113.667 408.467 113.667C439.133 113.667 463.867 124.467 482.733 145.5C501.033 166.533 510.133 194.967 510.133 230.767V405.867Z" fill="black"/>
</g>
<defs>
<clipPath id="clip0_1018_6686">
<rect width="622" height="668" fill="white"/>
</clipPath>
</defs>
</svg>
